<?xml version="1.0" encoding="UTF-8"?>
<svg id="Layer_1" xmlns="http://www.w3.org/2000/svg" version="1.1" viewBox="0 0 64 64">
  <!-- Generator: Adobe Illustrator 29.8.2, SVG Export Plug-In . SVG Version: 2.1.1 Build 3)  -->
  <defs>
    <style>
      .st0 {
        fill: #fff;
      }
    </style>
  </defs>
  <path class="st0" d="M58.893273,42.142543H5.107546L1.590717,18.642598c-.458445-2.059235.927744-3.463799,2.999928-2.746999l12.042119,9.01296c1.439637.563026,2.538119.36275,3.550778-.799808,3.448158-3.95857,6.078278-10.32219,9.539977-14.307615,1.713489-1.972726,3.048397-1.780054,4.665383.142085,3.369897,4.005854,6.12046,10.598357,9.537227,14.310367.966845,1.05039,2.325607,1.245216,3.591872.551537l11.891361-8.910497c1.902394-.672035,3.400369.544252,3.031603,2.5222l-3.547693,23.725714Z"/>
  <path class="st0" d="M5.48898,46.45408h53.02286l.380547.380547v6.088749c0,.944064-1.48813,2.493958-2.522879,2.551078l-48.090606.113505c-1.264785.08111-3.170468-1.431145-3.170468-2.664584v-6.088749l.380547-.380547Z"/>
  <metadata>
    <sfw xmlns="http://ns.adobe.com/SaveForWeb/1.0/">
      <slices/>
      <sliceSourceBounds x="1.5" y="-55.59" width="60.99" height="47.18" bottomLeftOrigin="true"/>
    </sfw>
  </metadata>
</svg>