<?xml version="1.0" encoding="UTF-8"?>
<svg id="Layer_1" xmlns="http://www.w3.org/2000/svg" version="1.1" xmlns:xlink="http://www.w3.org/1999/xlink" viewBox="0 0 32 32">
  <!-- Generator: Adobe Illustrator 29.2.1, SVG Export Plug-In . SVG Version: 2.1.0 Build 116)  -->
  <defs>
    <style>
      .st0 {
        fill: url(#linear-gradient);
      }
    </style>
    <linearGradient id="linear-gradient" x1="16" y1="35.57561" x2="16" y2="17.63981" gradientUnits="userSpaceOnUse">
      <stop offset="0" stop-color="#2b976c"/>
      <stop offset=".5" stop-color="#33db98"/>
      <stop offset="1" stop-color="#59fcb3"/>
    </linearGradient>
  </defs>
  <path class="st0" d="M7.0557,31.65252c-.81989,0-1.52177-.29193-2.10564-.8758s-.8758-1.28574-.8758-2.10564v-14.90716c0-.81989.29193-1.52177.8758-2.10564s1.28574-.8758,2.10564-.8758h1.49072v-2.98143c0-2.06216.72672-3.81996,2.18017-5.27341S13.93784.34748,16,.34748s3.81996.72672,5.27341,2.18017,2.18017,3.21125,2.18017,5.27341v2.98143h1.49072c.81989,0,1.52177.29193,2.10564.8758s.8758,1.28574.8758,2.10564v14.90716c0,.81989-.29193,1.52177-.8758,2.10564s-1.28574.8758-2.10564.8758H7.0557ZM7.0557,28.67109h17.88859v-14.90716H7.0557v14.90716ZM16,24.19894c.81989,0,1.52177-.29193,2.10564-.8758s.8758-1.28574.8758-2.10564-.29193-1.52177-.8758-2.10564-1.28574-.8758-2.10564-.8758-1.52177.29193-2.10564.8758-.8758,1.28574-.8758,2.10564.29193,1.52177.8758,2.10564,1.28574.8758,2.10564.8758ZM11.52785,10.78249h8.9443v-2.98143c0-1.24226-.43479-2.29819-1.30438-3.16777s-1.92551-1.30438-3.16777-1.30438-2.29819.43479-3.16777,1.30438-1.30438,1.92551-1.30438,3.16777v2.98143ZM7.0557,28.67109v-14.90716,14.90716Z"/>
  <metadata>
    <sfw xmlns="http://ns.adobe.com/SaveForWeb/1.0/">
      <slices/>
      <sliceSourceBounds x="4.07" y="-31.65" width="23.85" height="31.31" bottomLeftOrigin="true"/>
    </sfw>
  </metadata>
</svg>