<svg width="126" height="126" viewBox="0 0 126 126" fill="none" xmlns="http://www.w3.org/2000/svg">
<circle cx="63" cy="63" r="61.5" fill="#0A0A0A" stroke="#060606" stroke-width="3"/>
<path d="M62.7423 71.0913C53.7364 71.0913 45.7275 75.4396 40.6286 82.1879C39.5312 83.6402 38.9825 84.3663 39.0004 85.3478C39.0143 86.1061 39.4904 87.0626 40.087 87.5308C40.8593 88.1368 41.9294 88.1368 44.0696 88.1368H81.4148C83.5551 88.1368 84.6253 88.1368 85.3974 87.5308C85.994 87.0626 86.4702 86.1061 86.4841 85.3478C86.502 84.3663 85.9534 83.6402 84.856 82.1879C79.7571 75.4396 71.748 71.0913 62.7423 71.0913Z" stroke="#59FCB3" stroke-width="6" stroke-linecap="round" stroke-linejoin="round"/>
<path d="M62.7432 62.5682C69.8037 62.5682 75.5273 56.8445 75.5273 49.7841C75.5273 42.7236 69.8037 37 62.7432 37C55.6826 37 49.959 42.7236 49.959 49.7841C49.959 56.8445 55.6826 62.5682 62.7432 62.5682Z" stroke="#59FCB3" stroke-width="6" stroke-linecap="round" stroke-linejoin="round"/>
</svg>
