<?xml version="1.0" encoding="utf-8"?>
<!-- Generator: Adobe Illustrator 27.8.1, SVG Export Plug-In . SVG Version: 6.00 Build 0)  -->
<!DOCTYPE svg PUBLIC "-//W3C//DTD SVG 1.1//EN" "http://www.w3.org/Graphics/SVG/1.1/DTD/svg11.dtd" [
	<!ENTITY ns_extend "http://ns.adobe.com/Extensibility/1.0/">
	<!ENTITY ns_ai "http://ns.adobe.com/AdobeIllustrator/10.0/">
	<!ENTITY ns_graphs "http://ns.adobe.com/Graphs/1.0/">
	<!ENTITY ns_vars "http://ns.adobe.com/Variables/1.0/">
	<!ENTITY ns_imrep "http://ns.adobe.com/ImageReplacement/1.0/">
	<!ENTITY ns_sfw "http://ns.adobe.com/SaveForWeb/1.0/">
	<!ENTITY ns_custom "http://ns.adobe.com/GenericCustomNamespace/1.0/">
	<!ENTITY ns_adobe_xpath "http://ns.adobe.com/XPath/1.0/">
]>
<svg version="1.1" id="Layer_1" xmlns:x="&ns_extend;" xmlns:i="&ns_ai;" xmlns:graph="&ns_graphs;"
	 xmlns="http://www.w3.org/2000/svg" xmlns:xlink="http://www.w3.org/1999/xlink" x="0px" y="0px" viewBox="0 0 24 24"
	 style="enable-background:new 0 0 24 24;" xml:space="preserve">
<style type="text/css">
	.st0{fill:url(#SVGID_1_);}
	.st1{fill:#59FCB3;}
</style>
<metadata>
	<sfw  xmlns="&ns_sfw;">
		<slices></slices>
		<sliceSourceBounds  bottomLeftOrigin="true" height="20.31697" width="23.21889" x="0.39055" y="-22.15849"></sliceSourceBounds>
	</sfw>
</metadata>
<g>
	<linearGradient id="SVGID_1_" gradientUnits="userSpaceOnUse" x1="12" y1="21.94435" x2="12" y2="5.35984">
		<stop  offset="0" style="stop-color:#2B976C"/>
		<stop  offset="0.5" style="stop-color:#33DB98"/>
		<stop  offset="1" style="stop-color:#59FCB3"/>
	</linearGradient>
	<path class="st0" d="M23.50538,20.99046L12.67452,2.23086c-0.13914-0.24094-0.39622-0.38932-0.6744-0.38935
		c-0.27818-0.00001-0.53531,0.14843-0.67435,0.38935L0.49487,20.99044c-0.13909,0.24093-0.13909,0.53775,0,0.7787
		c0.13914,0.24095,0.39617,0.38932,0.67435,0.38935h0.55121h21.11092c0.27804-0.00012,0.535-0.14852,0.67398-0.38934
		c0.1065-0.18447,0.13118-0.40164,0.07461-0.60147C23.53274,21.05648,23.50538,20.99046,23.50538,20.99046z M17.68323,20.60112
		l-0.73379-0.73376c-0.12205-0.12207-0.28759-0.19064-0.46026-0.19064H7.68409c-0.17262,0-0.33821,0.06857-0.46026,0.19064
		l-0.73374,0.73373H2.51801l1.83873-3.18482l0.95287-0.25532c0.16673-0.04468,0.30889-0.15378,0.39523-0.30328l4.40257-7.62547
		c0.08634-0.14951,0.10972-0.32717,0.06504-0.49391l-0.09711-0.3624c0,0-0.00015-0.00058-0.00028-0.00104l-0.00029-0.0011
		C10.06611,8.34147,9.9171,7.78545,9.9171,7.78545c-0.01236-0.04611,2.08303-3.60786,2.08303-3.60786l2.04637,3.54444
		l-0.28123,1.31206c0.01378,0.06899,0.0381,0.13603,0.07393,0.1981l4.40257,7.62547c0.08634,0.14951,0.2285,0.2586,0.39523,0.30328
		l1.01628,0.2723l1.82897,3.16788L17.68323,20.60112z"/>
	<g>
		<path class="st1" d="M11.03471,10.86669c0.02771,0.58661,0.07647,1.17186,0.1212,1.75752
			c0.04044,0.52953,0.08089,1.05905,0.12133,1.58858c0.00515,0.06747,0.01008,0.13496,0.01546,0.2024
			c0.01456,0.1826,0.08762,0.33591,0.21904,0.45992c0.13141,0.1242,0.28828,0.18614,0.47085,0.18615
			c0.34232,0.00001,0.61238-0.24446,0.68756-0.57095c0.05028-0.21835,0.04218-0.45324,0.05921-0.67622
			c0.01359-0.17787,0.02717-0.35572,0.04076-0.53358c0.06921-0.90608,0.15048-1.81104,0.18273-2.71946
			c0.0013-0.03655,0.00433-0.07334,0.00433-0.10991c0.00723-0.2628-0.07851-0.48728-0.25733-0.67345
			c-0.17896-0.18615-0.39968-0.27924-0.66251-0.27924c0,0-0.09855,0-0.09857,0c-0.49119,0-0.9059,0.39869-0.91985,0.89184
			c-0.00057,0.02028-0.00055,0.04057,0.00002,0.06084C11.0228,10.58974,11.02817,10.72826,11.03471,10.86669z"/>
		<circle class="st1" cx="11.98804" cy="16.98526" r="1.21613"/>
	</g>
</g>
</svg>
