<?xml version="1.0" encoding="utf-8"?>
<!-- Generator: Adobe Illustrator 27.8.1, SVG Export Plug-In . SVG Version: 6.00 Build 0)  -->
<!DOCTYPE svg PUBLIC "-//W3C//DTD SVG 1.1//EN" "http://www.w3.org/Graphics/SVG/1.1/DTD/svg11.dtd" [
<!ENTITY ns_extend "http://ns.adobe.com/Extensibility/1.0/">
<!ENTITY ns_ai "http://ns.adobe.com/AdobeIllustrator/10.0/">
<!ENTITY ns_graphs "http://ns.adobe.com/Graphs/1.0/">
<!ENTITY ns_vars "http://ns.adobe.com/Variables/1.0/">
<!ENTITY ns_imrep "http://ns.adobe.com/ImageReplacement/1.0/">
<!ENTITY ns_sfw "http://ns.adobe.com/SaveForWeb/1.0/">
<!ENTITY ns_custom "http://ns.adobe.com/GenericCustomNamespace/1.0/">
<!ENTITY ns_adobe_xpath "http://ns.adobe.com/XPath/1.0/">
]>
<svg version="1.1" id="Layer_1" xmlns:x="&ns_extend;" xmlns:i="&ns_ai;" xmlns:graph="&ns_graphs;"
 xmlns="http://www.w3.org/2000/svg" xmlns:xlink="http://www.w3.org/1999/xlink" x="0px" y="0px" viewBox="0 0 24 24"
 style="enable-background:new 0 0 24 24;" xml:space="preserve">
<style type="text/css">
.st0{fill:#59FCB3;}
.st1{fill:url(#SVGID_1_);}
</style>
<metadata>
<sfw  xmlns="&ns_sfw;">
<slices></slices>
<sliceSourceBounds  bottomLeftOrigin="true" height="23.73806" width="23.73806" x="0.13097" y="-23.94976"></sliceSourceBounds>
</sfw>
</metadata>
<g>
<path class="st0" d="M18.19659,8.66127c-0.34672-0.3806-0.93846-0.40817-1.31898-0.0615l-6.09746,5.55378
c-0.10546,0.06614-0.22626,0.10175-0.3455,0.10317c-0.16745-0.0019-0.32703-0.0647-0.4493-0.17685l-0.62813-0.57599
c-0.09091-0.08333-0.14303-0.20189-0.14303-0.32525v-1.15542c0-0.50584-0.40441-0.92779-0.90143-0.94061
c-0.25176-0.00581-0.49004,0.0867-0.67039,0.26243c-0.18035,0.17575-0.2796,0.4112-0.2796,0.66296v1.68248
c0,0.31553,0.13335,0.6188,0.36592,0.83202l1.95063,1.78868c0.20423,0.18731,0.4704,0.2923,0.75553,0.29563
c0.18528-0.00222,0.36934-0.05083,0.52536-0.13692c0.07547-0.03854,0.14435-0.08595,0.20467-0.1409l6.97017-6.34871
c0.1844-0.16794,0.2923-0.39762,0.30393-0.64674C18.4506,9.08439,18.36453,8.84564,18.19659,8.66127z"/>
<linearGradient id="SVGID_1_" gradientUnits="userSpaceOnUse" x1="4.21592" y1="19.86479" x2="19.39974" y2="4.68097">
<stop  offset="0" style="stop-color:#2B976C"/>
<stop  offset="0.5" style="stop-color:#33DB98"/>
<stop  offset="1" style="stop-color:#59FCB3"/>
</linearGradient>
<path class="st1" d="M11.99998,0.2117c-6.54461,0-11.86901,5.3244-11.86901,11.86901s5.3244,11.86905,11.86901,11.86905
s11.86905-5.32444,11.86905-11.86905S18.54459,0.2117,11.99998,0.2117z M1.23141,12.08071c0-0.06096,0.00127-0.12163,0.0023-0.1824
c0.41389-0.89152,0.95404-1.62707,1.55814-2.2063c0.14259-0.13672,0.23872-0.3139,0.27535-0.50797
c0.57074-3.02821,2.96916-5.43591,5.99268-6.02047C9.25371,3.1261,9.43044,3.02928,9.56634,2.88611
c0.57728-0.6082,1.31239-1.15241,2.20357-1.57104c0.07654-0.00161,0.15314-0.00293,0.23007-0.00293
c5.93782,0,10.76861,4.83074,10.76861,10.76857c0,0.14713-0.00381,0.29338-0.00967,0.43909
c-0.39982,0.80135-0.90217,1.47105-1.46011,2.00603c-0.14259,0.13668-0.23877,0.3139-0.2753,0.50797
c-0.57079,3.02821-2.96921,5.43591-5.99273,6.02048c-0.19383,0.03747-0.37056,0.13428-0.50645,0.27745
c-0.54875,0.57811-1.24098,1.09775-2.07334,1.50749c-0.14967,0.00615-0.29988,0.01011-0.45101,0.01011
C6.06215,22.84932,1.23141,18.01853,1.23141,12.08071z"/>
</g>
</svg>